<svg enable-background="new 0 0 128 128" viewBox="0 0 128 128" xmlns="http://www.w3.org/2000/svg" xmlns:xlink="http://www.w3.org/1999/xlink"><linearGradient id="a"><stop offset="0" stop-color="#eceff1"/><stop offset=".2515" stop-color="#e2e7ea"/><stop offset=".6708" stop-color="#c9d2d7"/><stop offset="1" stop-color="#b0bec5"/></linearGradient><linearGradient id="b" gradientUnits="userSpaceOnUse" x1="64" x2="64" xlink:href="#a" y1="20" y2="123.44"/><linearGradient id="c"><stop offset="0" stop-color="#b0bec5"/><stop offset=".3292" stop-color="#c9d2d7"/><stop offset=".7485" stop-color="#e2e7ea"/><stop offset="1" stop-color="#eceff1"/></linearGradient><linearGradient id="d" gradientUnits="userSpaceOnUse" x1="108" x2="124" xlink:href="#c" y1="72" y2="72"/><linearGradient id="e" gradientTransform="matrix(-1 0 0 1 37.667 0)" gradientUnits="userSpaceOnUse" x1="17.667" x2="33.667" xlink:href="#c" y1="72" y2="72"/><linearGradient id="f" gradientUnits="userSpaceOnUse" x1="64" x2="64" xlink:href="#a" y1="4.5" y2="123.81"/><path d="m124 124h-120v-100c0-2.21 1.79-4 4-4h112c2.21 0 4 1.79 4 4z" fill="url(#b)"/><path d="m108 20h16v104h-16z" fill="url(#d)"/><path d="m4 124h16v-104h-16z" fill="url(#e)"/><g fill="#546e7a"><path d="m114 48h-8c-1.1 0-2-.9-2-2v-8c0-1.1.9-2 2-2h8c1.1 0 2 .9 2 2v8c0 1.1-.9 2-2 2z"/><path d="m114 68h-8c-1.1 0-2-.9-2-2v-8c0-1.1.9-2 2-2h8c1.1 0 2 .9 2 2v8c0 1.1-.9 2-2 2z"/><path d="m114 88h-8c-1.1 0-2-.9-2-2v-8c0-1.1.9-2 2-2h8c1.1 0 2 .9 2 2v8c0 1.1-.9 2-2 2z"/><path d="m22 48h-8c-1.1 0-2-.9-2-2v-8c0-1.1.9-2 2-2h8c1.1 0 2 .9 2 2v8c0 1.1-.9 2-2 2z"/><path d="m22 68h-8c-1.1 0-2-.9-2-2v-8c0-1.1.9-2 2-2h8c1.1 0 2 .9 2 2v8c0 1.1-.9 2-2 2z"/><path d="m22 88h-8c-1.1 0-2-.9-2-2v-8c0-1.1.9-2 2-2h8c1.1 0 2 .9 2 2v8c0 1.1-.9 2-2 2z"/></g><path d="m120 23c.55 0 1 .45 1 1v97h-114v-97c0-.55.45-1 1-1zm0-3h-112c-2.21 0-4 1.79-4 4v100h120v-100c0-2.21-1.79-4-4-4z" fill="#424242" opacity=".2"/><path d="m108 124h-88v-116c0-2.21 1.79-4 4-4h80c2.21 0 4 1.79 4 4z" fill="url(#f)"/><path d="m44 92h-8c-1.1 0-2-.9-2-2v-8c0-1.1.9-2 2-2h8c1.1 0 2 .9 2 2v8c0 1.1-.9 2-2 2z" fill="#546e7a"/><path d="m68 92h-8c-1.1 0-2-.9-2-2v-8c0-1.1.9-2 2-2h8c1.1 0 2 .9 2 2v8c0 1.1-.9 2-2 2z" fill="#546e7a"/><path d="m92 92h-8c-1.1 0-2-.9-2-2v-8c0-1.1.9-2 2-2h8c1.1 0 2 .9 2 2v8c0 1.1-.9 2-2 2z" fill="#546e7a"/><path d="m44 72h-8c-1.1 0-2-.9-2-2v-8c0-1.1.9-2 2-2h8c1.1 0 2 .9 2 2v8c0 1.1-.9 2-2 2z" fill="#546e7a"/><path d="m68 72h-8c-1.1 0-2-.9-2-2v-8c0-1.1.9-2 2-2h8c1.1 0 2 .9 2 2v8c0 1.1-.9 2-2 2z" fill="#546e7a"/><path d="m92 72h-8c-1.1 0-2-.9-2-2v-8c0-1.1.9-2 2-2h8c1.1 0 2 .9 2 2v8c0 1.1-.9 2-2 2z" fill="#546e7a"/><path d="m82 27.86h-12.86v-12.86h-10.28v12.86h-12.86v10.28h12.86v12.86h10.28v-12.86h12.86z" fill="#fff" stroke="#e53935" stroke-miterlimit="10" stroke-width="2"/><path d="m34.75 107.5h58.5v16.5h-58.5z" fill="#78909c"/><path d="m98 109.5h-68c-1.1 0-2-.9-2-2h72c0 1.1-.9 2-2 2z" fill="#80deea"/><path d="m100 108h-72v-2c0-.55.45-1 1-1h70c.55 0 1 .45 1 1z" fill="#e0f7fa"/><path d="m104 7c.55 0 1 .45 1 1v113h-82v-113c0-.55.45-1 1-1zm0-3h-80c-2.21 0-4 1.79-4 4v116h88v-116c0-2.21-1.79-4-4-4z" fill="#424242" opacity=".2"/></svg>