<svg viewBox="0 0 64 64" xmlns="http://www.w3.org/2000/svg"><path d="m23 11.62v5.38h-1a2.006 2.006 0 0 0 -2 2v-5a6.278 6.278 0 0 1 3-2.38z" fill="#40240f"/><path d="m44 14v5a2.006 2.006 0 0 0 -2-2h-1v-5.38a6.278 6.278 0 0 1 3 2.38z" fill="#40240f"/><path d="m53.19 51.95.81 3.05h-3-6v-3h8z" fill="#13969d"/><path d="m51 55v8h-6v-5-3z" fill="#f2c4b2"/><path d="m50 40-10.14-2.9-7.86 5.9-7.86-5.9-10.14 2.9-3.2 12h8.2v11h26v-11h8l.19-.05zm-10 20h-3a2.006 2.006 0 0 1 -2-2v-6h7v6a2.006 2.006 0 0 1 -2 2z" fill="#34c1ad"/><path d="m44 19v1.39a2.993 2.993 0 0 1 -1.34 2.5l-1.66 1.11a22.282 22.282 0 0 0 -9-2 22.282 22.282 0 0 0 -9 2l-1.66-1.11a2.993 2.993 0 0 1 -1.34-2.5v-1.39a2.006 2.006 0 0 1 2-2h1v-5.38a20.967 20.967 0 0 1 9-1.62 20.967 20.967 0 0 1 9 1.62v5.38h1a2.006 2.006 0 0 1 2 2z" fill="#f2c4b2"/><path d="m41 11.62a20.967 20.967 0 0 0 -9-1.62 20.967 20.967 0 0 0 -9 1.62 6.278 6.278 0 0 0 -3 2.38v-5a8 8 0 0 1 8-8h8a8 8 0 0 1 8 8v5a6.278 6.278 0 0 0 -3-2.38z" fill="#34c1ad"/><path d="m23 13.62v-2a6.278 6.278 0 0 0 -3 2.38v2a6.278 6.278 0 0 1 3-2.38z" fill="#241408"/><path d="m41 11.62v2a6.278 6.278 0 0 1 3 2.38v-2a6.278 6.278 0 0 0 -3-2.38z" fill="#241408"/><path d="m32 12a20.967 20.967 0 0 1 9 1.62v-2a20.967 20.967 0 0 0 -9-1.62 20.967 20.967 0 0 0 -9 1.62v2a20.967 20.967 0 0 1 9-1.62z" fill="#f2a283"/><path d="m42 52v6a2.006 2.006 0 0 1 -2 2h-3a2.006 2.006 0 0 1 -2-2v-6z" fill="#13969d"/><path d="m39.86 37.1-7.86 5.9-7.86-5.9 3.86-1.1 4 3 4-3z" fill="#13969d"/><path d="m36 30.08a9.156 9.156 0 0 1 -8 0 9.045 9.045 0 0 1 -5-6.08 22.282 22.282 0 0 1 9-2 22.282 22.282 0 0 1 9 2 9.045 9.045 0 0 1 -5 6.08z" fill="#13969d"/><path d="m36 30.08v5.92l-4 3-4-3v-5.92a9.156 9.156 0 0 0 8 0z" fill="#f2b59d"/><path d="m13 55h6v8h-6z" fill="#f2c4b2"/><path d="m19 52v3h-6-3l.8-3z" fill="#13969d"/><path d="m51 55h-6v8h3v-4a2 2 0 0 1 2-2h1z" fill="#f2a283"/><path d="m13 55h6v8h-3v-4a2 2 0 0 0 -2-2h-1z" fill="#f2a283"/><path d="m36 30.08a9.156 9.156 0 0 1 -8 0v5.92l.706.529 7.294-4.862z" fill="#f2a283"/><path d="m41 18v4l.894-.447a2 2 0 0 0 1.106-1.789v-.764a1 1 0 0 0 -1-1z" fill="#d9896d"/><path d="m23 18v4l-.894-.447a2 2 0 0 1 -1.106-1.789v-.764a1 1 0 0 1 1-1z" fill="#d9896d"/><ellipse cx="32" cy="21" fill="#d9896d" rx=".5" ry="1"/><g fill="#43251a"><path d="m34.4 13.987a.32.32 0 0 1 -.042.01c-.2.036-.353-.282-.353-.5 0-.061.023-1.5 2-1.5s2 1.439 2 1.5a.528.528 0 0 1 -.225.45c-.145.089-.287.006-.4-.13-.055-.068-.1-.152-.157-.216a.761.761 0 0 0 -.2-.142 2.943 2.943 0 0 0 -.553-.251 1.6 1.6 0 0 0 -1.486.327 2.117 2.117 0 0 1 -.584.452z"/><path d="m29.605 13.987a.32.32 0 0 0 .042.01c.2.036.353-.282.353-.5 0-.061-.023-1.5-2-1.5s-2 1.439-2 1.5a.528.528 0 0 0 .225.45c.145.089.287.006.4-.13.055-.068.1-.152.157-.216a.761.761 0 0 1 .2-.142 2.943 2.943 0 0 1 .553-.251 1.6 1.6 0 0 1 1.486.327 2.117 2.117 0 0 0 .584.452z"/><ellipse cx="36.5" cy="18.5" rx="1" ry="2"/><ellipse cx="27.5" cy="18.5" rx="1" ry="2"/></g><path d="m39 7h-11a3 3 0 0 1 0-6 8 8 0 0 0 -8 8v5a6.278 6.278 0 0 1 3-2.38 20.967 20.967 0 0 1 9-1.62 20.967 20.967 0 0 1 9 1.62 6.278 6.278 0 0 1 3 2.38v-2a5 5 0 0 0 -5-5z" fill="#21abab"/><path d="m41 9.62a20.967 20.967 0 0 0 -9-1.62 20.967 20.967 0 0 0 -9 1.62 6.278 6.278 0 0 0 -3 2.38v2a6.278 6.278 0 0 1 3-2.38 20.967 20.967 0 0 1 9-1.62 20.967 20.967 0 0 1 9 1.62 6.278 6.278 0 0 1 3 2.38v-2a6.278 6.278 0 0 0 -3-2.38z" fill="#13969d"/><path d="m47 54v-2h-2v3h6 3l-.266-1z" fill="#107c82"/><path d="m17 54h-6.733l-.267 1h3 6v-3h-2z" fill="#107c82"/><path d="m45 52v-7a2 2 0 0 1 2 2v5z" fill="#21abab"/><path d="m19 52v-7a2 2 0 0 0 -2 2v5z" fill="#21abab"/><path d="m29.114 37.257.3-.2-1.414-1.057-3.86 1.1 7.86 5.9 1.052-.79-4.023-3.353a1 1 0 0 1 .085-1.6z" fill="#107c82"/><path d="m40 60h-3a2 2 0 0 1 -1.992-1.918c-9.408-1.806-16.008-6.082-16.008-11.082v16h26v-4c-1.094 0-2.169-.035-3.228-.095a2 2 0 0 1 -1.772 1.095z" fill="#21abab"/><path d="m35 52h7v2h-7z" fill="#107c82"/><path d="m26.068 22.871a19.853 19.853 0 0 0 -3.068 1.129 9.045 9.045 0 0 0 5 6.08 9.156 9.156 0 0 0 8 0c.069-.033.134-.075.2-.109-5.306-.277-9.565-3.28-10.132-7.1z" fill="#107c82"/><path d="m22.5 37v19.639l-2.658.886a.5.5 0 0 0 -.342.475v5h1v-4.64l2.5-.833 2.5.833v4.64h1v-5a.5.5 0 0 0 -.342-.475l-2.658-.885v-19.64a2.5 2.5 0 0 1 2.5-2.5h2v-1h-2a3.5 3.5 0 0 0 -3.5 3.5z" fill="#e3e3e3"/><path d="m38 33.5h-2v1h2a2.5 2.5 0 0 1 2.5 2.5v15h1v-15a3.5 3.5 0 0 0 -3.5-3.5z" fill="#e3e3e3"/></svg>